<?xml version="1.0" encoding="utf-8"?>
<!-- Generator: Adobe Illustrator 21.1.0, SVG Export Plug-In . SVG Version: 6.00 Build 0)  -->
<svg version="1.1" id="Calque_1" xmlns="http://www.w3.org/2000/svg" xmlns:xlink="http://www.w3.org/1999/xlink" x="0px" y="0px"
	 viewBox="0 0 57 45.8" style="enable-background:new 0 0 57 45.8;" xml:space="preserve">
<style type="text/css">
	.st0{fill:#FFFFFF;}
</style>
<g>
	<g>
		<path class="st0" d="M13.3,0.5c7.4,3.2,2.1,10.4,1.6,14.4l0.8,0.8c1.9-0.4,4.7-0.8,7-1.2c13-2.1,19.1,12.5,32,10.5L57,27L55,28.6
			c0.5,0.2,0.4,0.7,0.4,1.2c-4.5,0.9-8.7,3.6-13.3,3.1c-4.1,2-8.2,4.1-13.3,3.9c-1.4,2.3,1.5,4.8-2.3,5.5c-1.4-1.1-2.8,0.3-4.3,0.4
			l0.4,2.3c-1.5,0.1-2.1-0.6-3.1,0.8l-8.2-1.2c0.8-1,2.1-1.1,1.5-2.7c0.6,0.7,1.6,0.3,2.3,0.4l0.4-0.4c-0.2-0.2-0.5-0.4-0.4-0.8
			c1.7,0.3,3.6,1.1,5.1,0.8c-0.4-0.7-0.4-1.5-1.2-2c1.7-0.9,0-2.2,0.4-3.5c-6.2-2.3-13.4-5.7-16.4-12.5c-1.1-2.1,0.3-4.2,0.4-6.2
			c1.8-3.4,7.5-3.8,5.8-9C6.9,5.1,3.6,9,0.4,8.3C0.5,8,0.2,7.8,0,7.5C5.4,6.6,6.9-2.2,13.3,0.5"/>
		<g>
			<path class="st0" d="M7.9,4.1c0,0.3,0.3,0.6,0.6,0.6c0.3,0,0.6-0.3,0.6-0.6c0-0.3-0.3-0.6-0.6-0.6C8.2,3.5,7.9,3.8,7.9,4.1"/>
		</g>
		<g>
			<path class="st0" d="M30.7,27.7L30.7,27.7c0-0.1-1.5,0.3-2.8,0.4l0,0.2l3.3-0.2l0.4,0l-0.3-0.2L30.7,27.7L30.7,27.7L30.7,27.7
				L30.7,27.7L30.7,27.7l0.5,0.4l0-0.1l0-0.1l-3.3,0.2v0.1l0,0.1C29.3,28.2,30.7,27.8,30.7,27.7L30.7,27.7L30.7,27.7L30.7,27.7"/>
		</g>
		<g>
			<path class="st0" d="M26.2,25.8l0,0.1c0,0,3.1-0.1,5.5-0.5l0-0.1l0-0.1c0,0-2.1,0.6-4.4,0.6C27,25.8,26.6,25.8,26.2,25.8
				L26.2,25.8l0,0.1L26.2,25.8L26.2,25.8C26.6,26,27,26,27.4,26c2.2,0,4.4-0.6,4.4-0.6l0-0.2C29.3,25.6,26.2,25.8,26.2,25.8
				L26.2,25.8L26.2,25.8"/>
		</g>
		<g>
			<path class="st0" d="M28.5,30.7l0,0.1c0,0,4.5-0.4,8-1.1l0-0.1l0-0.1c0,0-3.6,1.1-7,1.1C29.1,30.6,28.8,30.6,28.5,30.7L28.5,30.7
				l0,0.1L28.5,30.7v0.1c0.3,0,0.6,0,0.9,0c3.5,0,7.1-1.1,7.1-1.1l0-0.2C33,30.2,28.5,30.6,28.5,30.7v0.1V30.7"/>
		</g>
		<g>
			<path class="st0" d="M26.1,33.7L26.1,33.7c0,0.1,5.1-0.7,9.1-1.5l0-0.1l0-0.1C35.1,31.9,30.1,33.4,26.1,33.7L26.1,33.7L26.1,33.7
				L26.1,33.7L26.1,33.7c4.1-0.1,9.1-1.5,9.1-1.5l-0.1-0.2C31.1,32.8,26.1,33.6,26.1,33.7L26.1,33.7L26.1,33.7"/>
		</g>
		<g>
			<path class="st0" d="M24.4,24L24.4,24l2.6-0.5l0-0.1l0-0.1C27,23.3,25.7,23.9,24.4,24L24.4,24L24.4,24L24.4,24L24.4,24L24.4,24
				L24.4,24c1.4,0.1,2.6-0.5,2.6-0.5L27,23.3L24.4,24L24.4,24L24.4,24"/>
		</g>
	</g>
</g>
</svg>
