<?xml version="1.0" encoding="utf-8"?>
<!-- Generator: Adobe Illustrator 21.1.0, SVG Export Plug-In . SVG Version: 6.00 Build 0)  -->
<svg version="1.1" id="Calque_1" xmlns="http://www.w3.org/2000/svg" xmlns:xlink="http://www.w3.org/1999/xlink" x="0px" y="0px"
	 viewBox="0 0 92.4 76" style="enable-background:new 0 0 92.4 76;" xml:space="preserve">
<style type="text/css">
	.st0{fill:#FFFFFF;}
</style>
<path class="st0" d="M91.5,14.1c-2-1.3-6.2-6.3-7.1-7.7C84.2,6.1,84,5.5,83.7,5c-0.7-1.6-1.6-3.7-3.5-4.3
	c-2.7-0.8-10.8-1.9-15.5,3.7c-4.7,5.6-5.4,5.7-6.4,10.4c-1,4.7-1.2,12.1-1.9,12.9c-0.7,0.8-13.6,2.7-17.5,5.4
	c-3.9,2.6-4.5,0.3-9.1,3c-4.5,2.7-9.8,5.6-9.8,5.6s-11,3.7-11.8,3.7S5.4,44,5.4,44l-2.2-1.9c-0.8,1.1,2.5,3.2,2.5,3.2l-3.6-0.9
	c1.9,1.1,0.2,0.9,0.2,0.9H0l2.9,1.5H0l3.5,1.4H1l4.5,2.2H2.2l3,2.5l4.9,1.5c0,0,0.3-0.9,1.5,2.3c1.2,3.2,4.4,9.8,11.1,9.3
	c6.7-0.5,11.1-1,11.6-0.7c0.5,0.3-1.7,0.1,1.2,0.7c1.5,0.3,3.9-0.4,6.1-1.3c0.3,3,0.6,6.3,0.5,7.2c-0.1,1.6-0.1,1.4,1.5,1.5
	s10.5,3.9,12.3,2.5c0.2-0.2-1.2-0.3-0.1-1.3c1.1-0.9,4.5-0.7,3.4-1.3c-0.1,0-0.2-0.1-0.3-0.1c0.1-0.1,0.2-0.1,0.2-0.2
	c0.2-0.3-1.2-0.3-0.1-1.3c1.1-0.9,4.5-0.7,3.4-1.3c-1.1-0.6-6.1-0.6-6.1-0.6s0-1.2-1.2-0.8c-1.2,0.4-6.2-0.7-6.2-0.7
	s0.1-1.2-0.4-2.5c-0.3-0.9-0.7-2.6-0.9-3.9c2.1-0.9,5.6-2.5,9.5-5.3c4.5-3.2,16-6.2,17.4-19.4C76,24.1,65.5,14.4,75,10.4
	c2-0.9,2.9,0.5,4,0.5c0.6,0,1.1,0.1,1.5,0.2c3,0.7,3.9,3.2,7.2,4.2c4.9,1.5,3.7,0.8,3.7,0.8S93.5,15.5,91.5,14.1z M44.5,63.3
	L44.5,63.3c0.2-0.1,0.3-0.2,0.5-0.2c0.2,2.3,0.4,4.5,0.4,5.5C44.9,67.3,44.3,64.4,44.5,63.3z M56.2,73c-1.3,0.1-2.5,0.1-3.1-0.5
	c-0.1-0.1-0.1-0.2-0.1-0.3C54.2,72.5,55.3,72.8,56.2,73z M51.8,71.8c-1.4,0.3-6-0.7-6-0.7s0-0.3,0-0.8c0.2,0,0.6,0,1.1,0.1
	C47.5,70.4,49.5,71.1,51.8,71.8z"/>
</svg>
