<?xml version="1.0" encoding="utf-8"?>
<!-- Generator: Adobe Illustrator 21.1.0, SVG Export Plug-In . SVG Version: 6.00 Build 0)  -->
<svg version="1.1" id="Calque_1" xmlns="http://www.w3.org/2000/svg" xmlns:xlink="http://www.w3.org/1999/xlink" x="0px" y="0px"
	 viewBox="0 0 52.8 57.6" style="enable-background:new 0 0 52.8 57.6;" xml:space="preserve">
<style type="text/css">
	.st0{fill:#FFFFFF;}
</style>
<g>
	<g>
		<path class="st0" d="M1.8,19.7c-0.6-0.6-1.6-1-1.8-1.9l0.5-0.1c0.9,0.2,1.8,0.5,2.6,0.7C2.7,18,2,17.7,1.9,17.2
			c-0.6-0.6-1.3-1.2-1.6-2c-0.1-0.3-0.1-0.8,0.2-1c0.5,0,1,0.4,1.5,0.2l-0.1,0.2c0.5,0.2,0.9,0.6,1.3,0.6C3,15,2.8,14.7,2.5,14.6
			l0,0l-0.4-0.2l-0.2-0.2c-0.5-0.2-0.9-0.8-1.2-1.4l0.4-0.6c0.3-0.5,1-0.1,1.4-0.1l0.6,0.3c1.5,0.9,3.3,1.5,4.6,3L8.9,16
			c0.4,0.3,0.7,0.8,1.2,0.9c1,0.7,2.1,1.5,3.2,2.2c1.3,0.9,2.8,1.4,4.3,1.7c0.7,0.3,1.4,0.3,2.2,0.5c1.2,0.1,2.2,0.7,3.4,0.8
			c0.4-0.3,0.7-0.7,1.2-0.8c1.9-0.4,3.7-1.4,5.8-1.3l0.3,0.3l0.8-0.2c0.4,0.2,0.7-0.2,1.1-0.3c0.4-0.1,0.8-0.7,1.3-0.5
			c2.5-0.7,3.6-3.4,3.9-5.6c0.5-1,0.8-2.1,1-3.1c0-1,0.6-1.7,1.1-2.5c0.1-0.5,0.6-1.1,0.2-1.6c0.3-0.8-1-1-0.8-1.7
			c0.8-0.5,1.8-0.2,2.6-0.2l-0.2-0.6c-0.3-0.6-1-1.1-1.1-1.8c0.2-0.3,0.6-0.3,0.9-0.2c0.8,0.4,1.5,0.8,2.2,1.4
			c0.2-0.9-0.4-1.7-0.6-2.6l0-0.5L43.4,0c1.2,0.6,2.5,1.7,2.9,3C46.8,2.9,47,2.3,47,1.8c0-0.3,0.3-0.5,0.6-0.6
			c1.1,0.6,1.1,1.9,1.6,2.8c0.3,0,0.4-0.6,0.6-0.9C50,3,49.6,2.7,50,2.6c0.7,0.6,0.7,1.6,1,2.4c-0.1,0.7-0.7,1.2-0.6,1.9
			c0.9,0.3,1.8,0.9,2.4,1.7L52.6,9c-0.8,0.1-1.7-0.1-2.5,0.3c0.4,0.4,0.5,0.9,0.7,1.4c0.1,0.7,0.4,1.4,0.2,2.2
			c-0.1,0.4-0.6,0.4-0.9,0.4c-0.1,0.3-0.5,0-0.7,0.3c-0.5,0.2-1.1,0.1-1.6,0.4c0,0.5,0.3,0.8,0.5,1.2c0.3,0.4-0.3,0.8,0.1,1.2
			c1.4,2.1,2.6,4.3,2.9,6.8c-0.3,0.5-0.1,1.4-0.2,1.9c-0.3,0.6-0.4,1.2-0.4,1.9c-0.1,0.8-0.2,1.7-0.6,2.5c-0.3,0.5-0.8,1.6-0.8,1.6
			c-1.4,3.9-4.1,7-7.5,8.9c-3.4,3.6-7.9,6.3-12.2,7.4c-0.6,1.8-2.7,3.5-1.3,5.5c1.2,1.4,3.7,0.9,5.1,0.4L31,54.6l4.3,1.7
			c0.3,0.6-1.4-1.3-2.1,0c0.5,0.5,1.1,0.6,1.7,0.9v0.4c-4.1-0.3-6.6-4.4-10.7-4.7c-0.3-0.1,2.3,0.3,3-0.4c-1.4-0.3-3.1-1-3.8-2.1
			c0.5,0.8,1.2,1,2.1,0.9c1.4-1.2-1-2.3,0.4-3.4c-5.1-1.7-7.3-6.2-9.7-10.3c-2.6-2-5.1-4.6-7.1-7.9c0,0-0.8-1.7-1-2.7l-0.1-0.3
			c-0.4-0.2-0.8-0.4-1.2-0.6l-0.6-0.3c-0.3-0.3-0.7-0.3-1-0.6c-0.5,0.1-0.7-0.4-1.2-0.6c-0.2-0.3-0.7-0.3-0.8-0.7l0,0
			c-0.3-0.2-0.5-0.5-0.9-0.6c-0.3-0.5-1-0.7-1.3-1.3c0.5-0.4-0.4-0.7-0.1-1c0.7-0.2,1.5,0.1,2.2,0.1C2.9,20.6,2.2,20.2,1.8,19.7"/>
		<g>
			<path class="st0" d="M45.4,6.8c0,0.3,0.2,0.5,0.5,0.5c0.3,0,0.5-0.2,0.5-0.5c0-0.3-0.2-0.5-0.5-0.5C45.6,6.3,45.4,6.5,45.4,6.8"
				/>
		</g>
		<path class="st0" d="M21.7,23.3c-0.3,0-0.7,0.1-1,0.1c-0.4,0.1-0.6,0.1-0.6,0.1l-0.2,0.4l-0.5,0.1l-0.6,0.3l-1.5,0.5l-0.3,0.1
			l0.5,0.2L18,25l0.3-0.1c0.7-0.4,1-0.5,1-0.5l0.9-0.4l1.8-0.8"/>
		<g>
			<path class="st0" d="M24.1,38.3l-0.4-0.4c0,0-3.7-0.8-8.9-2.8C14.8,35.1,19.9,37.2,24.1,38.3"/>
		</g>
		<g>
			<path class="st0" d="M16.9,31.1l-0.3-0.4c0,0-2.5-0.6-6.1-2.3C10.5,28.4,14,30.2,16.9,31.1"/>
		</g>
		<g>
			<path class="st0" d="M11.8,31.3c0,0,3.7,2.2,10,3.7l-0.5-0.6C21.2,34.4,17.3,33.4,11.8,31.3"/>
		</g>
		<polyline class="st0" points="41.8,40 40.4,40.1 38.8,39.5 38,40.1 41.8,40 		"/>
	</g>
</g>
</svg>
