<?xml version="1.0" encoding="utf-8"?>
<!-- Generator: Adobe Illustrator 21.1.0, SVG Export Plug-In . SVG Version: 6.00 Build 0)  -->
<svg version="1.1" id="Calque_1" xmlns="http://www.w3.org/2000/svg" xmlns:xlink="http://www.w3.org/1999/xlink" x="0px" y="0px"
	 viewBox="0 0 189.4 197.2" style="enable-background:new 0 0 189.4 197.2;" xml:space="preserve">
<style type="text/css">
	.st0{fill-rule:evenodd;clip-rule:evenodd;fill:#FFFFFF;}
</style>
<path class="st0" d="M189.4,59.5c0,0.3,0,0.7,0,1c-1.6,3.6-5.9,5.4-8.4,9.3c-1.8,2.9-6,10-6.4,12.8c-1.3,8.5,2.3,17,0.5,26.1
	c-0.4,2.2-2.3,4.2-3,6.4c-1.7,5.7-0.8,10.6-0.5,16.2c2.6,5.2,7.9,10.3,7.4,17.2c-0.2,2-1.8,4.4-3,7.4c-2.2,5.9-3.1,9.9-6.9,12.3
	c-1.4,6,0.9,13.8,0.5,18.7c-3.1,0.6-5.1-0.3-8.4,0.5c-1.7,2-2.4,5.2-3.9,7.4c-4.6-0.5-10,0.8-13.3,0c4.6-13.1,19.2-18.1,15.2-36.9
	c-9.4,2.2-10.6,12.7-12.8,22.1c-8-1.3-9.2,4.3-9.8,10.3c-4.7-1.2-9.9,1.7-13.3,0c3.6-20.8,24.6-26.8,20.2-54.1
	c-6.2-2.4-11.6-5.8-17.2-8.9c-15.8,12.2-44,3.5-63,2c-4.9,5.9-4.6,15-7.4,22.6c-0.8,2.2-2.4,4.1-3,6.4c-2.1,8.8-0.4,18.4-0.5,29
	c-5.8,3.4-9,10.9-19.7,7.9c2.9-11.9,15-19.8,9.8-36.4c-6.6,9.8-9.5,23.3-15.2,33.9c-2.2,0.2-6.9,2.1-8.4,0c-1-6.3,5.1-9.2,7.9-14.8
	c1.7-3.4,2.6-7.8,3.4-11.8c0.8-4.1,0.5-11.8,2-14.8c3.5-6.9,6.3-13.8,7.4-20.7c-7.2-7-6.4-24.3-4.4-36.4
	c-3.4-5.3-5.3-12.1-10.8-15.2c-6,4.4-1.7,18.3-3.4,24.6c-4.8-1.5-4.5-8-5.4-13.3C10.4,89.6,4.6,89.2,1,86.6
	c-1.6-5.8,5-10.2,5.9-16.2c1.3-8.7-1.7-14.9,1.5-21.2c1.1-2.2,4.3-4,4.9-6.4c1.1-4-0.2-8.6,0-12.8C14.1,16.1,18.4,4.5,30,1
	c-0.9,5.2-3.7,8.5-3.9,14.3c5.3-1.1,9-7.3,15.2-8.4c2.4-0.4,7.6-0.6,9.8,1.5c-12.4,4.2-22.1,13.6-20.7,30c3.8,0.5,6.9,2.3,9.8,1.5
	c4.4-1.2,6.6-9.3,13.3-7.9c5.2,9-6.9,11.5-6.9,17.2c0,4.3,8.9,8.9,11.3,10.8c4.5,3.5,7.8,8.5,12.3,10.3c7.4,3,22.3,3,31,3
	c12,0,20.7-3.7,28.5-6.4c8.1-2.7,17.1-4.4,25.1-3c5.6,1,9.2,5.2,11.8,8.4c9.5-4.6,6-20.1,7.4-32c6.4,2.5,6.9,10.8,6.9,19.7
	C183.2,59.4,186.9,58.2,189.4,59.5z"/>
</svg>
