<?xml version="1.0" encoding="utf-8"?>
<!-- Generator: Adobe Illustrator 21.1.0, SVG Export Plug-In . SVG Version: 6.00 Build 0)  -->
<svg version="1.1" id="Calque_1" xmlns="http://www.w3.org/2000/svg" xmlns:xlink="http://www.w3.org/1999/xlink" x="0px" y="0px"
	 viewBox="0 0 98.1 102.1" style="enable-background:new 0 0 98.1 102.1;" xml:space="preserve">
<style type="text/css">
	.st0{opacity:0.87;fill:#FFFFFF;}
</style>
<path class="st0" d="M87.4,40.9c-0.1-0.1-0.1-0.1-0.2-0.2c-0.4-0.6-0.4-0.4,0.7-1.1c1.1-0.6-0.2-1.7-0.7-3.1
	c-0.5-1.4-2.1-2.1-1.5-3.4c0.5-1.3-1.7-4.4-1.7-5c0-0.6-1-2.1-1.3-3.6c-0.3-1.5-1.5-3.6-0.8-4.3c0.8-0.6,2.5,0.4,2.8,1
	c0.4,0.6,2.7,7.2,3.1,6.8c0.4-0.4-1.4-7.9-2.2-9.9c-0.8-2.1-2.6-2.1-2.6-2.1s-0.6-1.3-1.6-2.5c-1-1.2-3.5-1.9-6.7-0.3
	c-3.2,1.5-2.9,7.7-2.9,8c0,0.3,1.4,3,2.6,4.1c1.2,1.2,1.8,2.6,1,2.6c-0.1,0-0.3,0.1-0.5,0.2c-1,0.6-2.9,2.7-2.9,2.7L70,32.6
	c0,0-16.8-3.5-21.5-4.2c-1.2-3.9-3.2-10.6-3.8-10.8c-0.9-0.2-1.5,1.1-1.5,1.1s-3.2-10-7.5-9.4c-1.8,0.3,0-2-2.5-4.6
	c-1.1-1.1-3.9-0.9-5-1c-1-0.1-3.5-3.7-5.5-3.6c-1.3,0-2.1,2.6-2.1,2.6S14.9,0,13,3c-1.6,2.5-0.5,3.8-0.5,3.8s-1.8-2-4.5-0.7
	c-2.1,1-0.4,4.7-1.1,4.7c-0.6,0-3.8-0.3-4.1,1.6c-0.4,1.9,0.5,3.1,0.5,3.1s-3.3,2-3.2,5.3c0.1,1.3,1.1,5.4,1.3,6.4
	c0.1,1-1.6,3.5-1.4,4.9c0.3,1.4,2.8,3.7,2.8,3.7S1.4,40,1.9,40.8c0.5,0.7,2.4,2.7,2.4,2.7S4.1,48,5.1,48.6c1,0.6,4.1,0.8,4.8,1.9
	l-1,7c0,1.8,3.2,4.3,3.9,4.4c0.6,0.1,0.5,2.2,0,3.1c-0.5,0.9,0.9,5.9,4.1,5.7c3.2-0.3,4.8-1.5,4.8-1.5s0.4,1,0.9,1.8
	c-0.2,2.2-0.2,5-1.6,7.8c-2.6,5.2,5.5-1.5,1.3,2.3c-4.3,3.9-3.1,8.3-3.1,9.3c0,1,1.4,3,1.4,3s-0.1,1.5,1.2,0.8
	c1.3-0.7,2.3-2.7,2.3-2.7s-1,2.2-1,3.5c0,1.3,0.5,2.1,0.9,2.1c0.4,0,0.8-0.8,2.3-1.3c1.5-0.5,3.7-2.1,3.7-2.1s0.4,2.2,2.3,1.3
	c1.9-0.9,2.5-2.2,2.5-2.2s0.3,1.7,1.5,1.5c1.3-0.2,12-11.4,12-11.4s1.5,0.8,2.3,0.8c0.2,0,0.5,0.1,0.9,0.3c0.2,7.3-0.8,9.3-1.4,9.5
	c-0.7,0.3-2.4-0.5-2.1,0.9c0.3,1.4,1.6,1,1.6,1l2.5,5.3c5.2,0.5,6.1,2.9,9.5,0.7c0.1-0.1,0.1-0.2,0.2-0.3c3.4,0.6,2.7,1.4,5.7-0.6
	c0.5-0.3-0.2-2.8,0.5-2.8c0.7-0.1,0-0.7,0-0.7s-4.6-1.5-5.4-3.1c-0.4-0.9-0.4-4.9-0.2-8.3c0.7,0.4,1.3,0.8,1.6,0.8
	c0.5,0,1.3-2.2,1.3-2.2s3.7,0,4.8,0c1,0,4.5-2.3,5.7-1.9c1.2,0.4,6.3-2.3,7-2.4c0.6-0.1,1.4,0,1.4,0s0.1-1,1.8-1.5
	c1.7-0.5,1.2-3.1,1.2-3.1l1.3,0.8c0,0,0.4-1,1.2-0.9c0.8,0.2,1.4-1.3,1.4-1.3S90,71.2,90.5,71c0.5-0.1,1.3-0.8,1.3-0.8
	s-0.8-3.5,1.5-2.3c2.3,1.2,1,8.8,3.6,6.4c2.6-2.3-0.1-8-1-18.2C95.1,46.7,88.5,42,87.4,40.9z M58.3,84.3c0.2,6.9-0.8,8.7-1.4,9
	c-0.3,0.1-0.8,0.1-1.2,0.1c-0.3-1.4-0.3-5.4-0.1-8.5C56,84.5,57.2,84.3,58.3,84.3z"/>
</svg>
