<?xml version="1.0" encoding="utf-8"?>
<!-- Generator: Adobe Illustrator 19.0.0, SVG Export Plug-In . SVG Version: 6.00 Build 0)  -->
<svg version="1.1" id="Capa_1" xmlns="http://www.w3.org/2000/svg" xmlns:xlink="http://www.w3.org/1999/xlink" x="0px" y="0px"
	 viewBox="-331 133.3 271.3 283.3" style="enable-background:new -331 133.3 271.3 283.3;" xml:space="preserve">
<style type="text/css">
	.st0{fill:#FFFFFF;}
	.st1{fill:#FFFFFF;stroke:#E93842;stroke-width:12;stroke-miterlimit:10;}
</style>
<g id="Favorite_1_">
	<path class="st0" d="M-63.5,232.5c-2-5.4-7-9.1-12.7-9.6l-75.8-9l-31-71.5c-2.4-5.5-7.7-9-13.7-9h0c-5.9,0-11.3,3.5-13.7,9
		l-31.1,71.6l-75.8,9c-5.7,0.5-10.7,4.2-12.7,9.6c-2,5.4-0.8,11.5,3.3,15.6l58.4,55.2l-17.7,80.8c-1,5.7,1.3,11.5,6.1,14.9
		c2.6,1.8,5.6,2.7,8.6,2.7c2.6,0,5.1-0.7,7.4-2l67.1-42.8l67.1,42.8c2.3,1.3,4.9,2,7.4,2c3,0,6-0.9,8.6-2.7
		c4.7-3.3,7.1-9.1,6.1-14.8l-17.7-80.9l58.5-55.3C-62.7,243.9-61.5,237.9-63.5,232.5z"/>
</g>
<g id="Favorite_2_">
	<path class="st1" d="M-66.3,302.1c-1.3-3.5-4.5-5.9-8.1-6.2l-48.6-5.8l-19.9-45.8c-1.5-3.5-5-5.8-8.8-5.8h0c-3.8,0-7.3,2.3-8.8,5.8
		l-19.9,45.9l-48.6,5.8c-3.7,0.3-6.9,2.7-8.1,6.2c-1.3,3.5-0.5,7.4,2.1,10l37.5,35.4l-11.3,51.8c-0.7,3.7,0.9,7.4,3.9,9.5
		c1.6,1.2,3.6,1.8,5.5,1.8c1.6,0,3.3-0.4,4.8-1.3l43-27.4l43,27.4c1.5,0.9,3.1,1.3,4.8,1.3c1.9,0,3.9-0.6,5.5-1.7
		c3-2.1,4.6-5.8,3.9-9.5l-11.3-51.9l37.5-35.4C-65.8,309.4-65,305.5-66.3,302.1z"/>
</g>
</svg>
