<?xml version="1.0" standalone="no"?>
<!DOCTYPE svg PUBLIC "-//W3C//DTD SVG 20010904//EN"
 "http://www.w3.org/TR/2001/REC-SVG-20010904/DTD/svg10.dtd">
<svg version="1.0" xmlns="http://www.w3.org/2000/svg"
 width="384.000000pt" height="384.000000pt" viewBox="0 0 384.000000 384.000000"
 preserveAspectRatio="xMidYMid meet">
<metadata>
Created by potrace 1.10, written by Peter Selinger 2001-2011
</metadata>
<g transform="translate(0.000000,384.000000) scale(0.100000,-0.100000)"
fill="#000000" stroke="none">
<path d="M843 3828 c1 -6 -16 -20 -37 -32 -82 -45 -124 -139 -104 -235 10 -43
21 -63 59 -101 84 -84 25 -80 1149 -80 1124 0 1065 -4 1149 80 38 38 49 58 59
101 20 96 -22 190 -104 235 -21 12 -38 26 -36 32 1 9 -267 12 -1068 12 -801 0
-1069 -3 -1067 -12z m2092 -154 c8 -4 22 -19 30 -35 12 -23 13 -33 3 -54 -26
-57 18 -55 -1057 -55 -746 0 -997 3 -1016 12 -15 7 -33 25 -41 40 -13 25 -13
32 1 57 8 16 20 31 27 34 19 8 2033 8 2053 1z"/>
<path d="M1105 3314 c-120 -26 -200 -74 -261 -156 -81 -106 -75 11 -72 -1408
l3 -1265 28 -57 c35 -71 88 -129 146 -159 29 -15 57 -42 85 -82 22 -32 61 -87
86 -120 l45 -62 745 0 745 0 45 62 c25 33 64 88 86 120 28 40 56 67 85 82 58
30 111 88 146 159 l28 57 3 1265 c3 1422 9 1302 -74 1412 -45 57 -118 111
-189 137 -34 13 -162 15 -850 17 -445 1 -819 0 -830 -2z m1628 -159 c70 -21
100 -42 135 -94 l32 -47 -2 -180 -3 -179 -480 -5 c-438 -5 -483 -7 -508 -23
l-27 -17 0 -810 0 -809 26 -20 c26 -21 36 -21 510 -21 l484 0 0 -215 c0 -198
-2 -217 -21 -255 -27 -52 -82 -94 -141 -108 -66 -17 -1590 -17 -1656 0 -60 14
-116 58 -142 111 -21 42 -21 44 -18 1292 l3 1250 30 42 c33 46 65 68 128 88
65 20 1582 21 1650 0z m167 -1355 l0 -700 -437 2 -438 3 -3 665 c-1 366 0 680
3 698 l6 32 434 0 435 0 0 -700z m-303 -1605 c3 -9 -3 -25 -12 -35 -18 -19
-35 -20 -675 -20 -640 0 -657 1 -675 20 -9 10 -15 26 -12 35 6 13 84 15 687
15 603 0 681 -2 687 -15z"/>
<path d="M1050 2942 c-30 -2 -58 -9 -62 -15 -4 -7 -8 -550 -8 -1208 0 -1020 2
-1198 14 -1208 9 -7 38 -11 73 -9 l58 3 3 1216 c2 969 0 1218 -10 1220 -7 2
-38 3 -68 1z"/>
</g>
</svg>
