<?xml version="1.0" encoding="utf-8"?>
<!-- Generator: Adobe Illustrator 21.1.0, SVG Export Plug-In . SVG Version: 6.00 Build 0)  -->
<svg version="1.1" id="Capa_1" xmlns="http://www.w3.org/2000/svg" xmlns:xlink="http://www.w3.org/1999/xlink" x="0px" y="0px"
	 viewBox="0 0 512 354.1" style="enable-background:new 0 0 512 354.1;" xml:space="preserve">
<style type="text/css">
	.st0{fill:#FFFFFF;}
</style>
<g id="serving">
	<path class="st0" d="M42.4,293.1h427.2c5.6,0,11-2.4,14.8-6.5c3.8-4.2,5.7-9.7,5.2-15.3C479.9,166,400.6,81,298.3,62.4
		c0.2-1.8,0.5-3.5,0.5-5.4c0-20.1-16.3-57-42.8-57c-26.6,0-42.8,36.9-42.8,57c0,1.9,0.3,3.6,0.5,5.4C111.4,81,32.1,166,22.4,271.2
		c-0.5,5.6,1.3,11.2,5.1,15.3C31.4,290.7,36.7,293.1,42.4,293.1z M238.9,57c0-12.9,11.1-31.3,17.1-31.3c6.1,0,17.1,18.4,17.1,31.3
		c0,0.8-0.3,1.5-0.5,2.3c-5.5-0.4-11-0.8-16.7-0.8c-5.6,0-11.1,0.4-16.7,0.8C239.2,58.5,238.9,57.8,238.9,57z"/>
	<path class="st0" d="M490.6,311.3H21.4C9.6,311.3,0,320.9,0,332.7c0,11.8,9.6,21.4,21.4,21.4h469.2c11.8,0,21.4-9.6,21.4-21.4
		C512,320.9,502.4,311.3,490.6,311.3z"/>
</g>
</svg>
