<?xml version="1.0" encoding="utf-8"?>
<!-- Generator: Adobe Illustrator 21.1.0, SVG Export Plug-In . SVG Version: 6.00 Build 0)  -->
<svg version="1.1" id="Capa_1" xmlns="http://www.w3.org/2000/svg" xmlns:xlink="http://www.w3.org/1999/xlink" x="0px" y="0px"
	 viewBox="0 0 374.5 512" style="enable-background:new 0 0 374.5 512;" xml:space="preserve">
<style type="text/css">
	.st0{fill:#FFFFFF;}
</style>
<g>
	<path class="st0" d="M372.1,180.4L345,144.9l5.8-44.2c0.7-5.1-2.2-9.9-6.9-11.9l-41.2-17.1l-17.1-41.2c-2-4.7-6.8-7.5-11.9-6.9
		l-44.2,5.8L194.1,2.3c-4.1-3.1-9.7-3.1-13.7,0l-35.4,27.1l-44.2-5.8c-5.1-0.7-9.9,2.2-11.9,6.9L71.7,71.7L30.5,88.8
		c-4.7,2-7.5,6.8-6.9,11.9l5.8,44.2L2.3,180.4c-3.1,4-3.1,9.7,0,13.7l27.1,35.4l-5.8,44.2c-0.7,5.1,2.2,9.9,6.9,11.9l41.2,17.1
		l17.1,41.2c1.5,3.7,4.8,6.2,8.5,6.8v150c0,4.1,2.2,7.9,5.9,9.9c3.6,2,8,1.8,11.5-0.4l72.6-46l72.6,46c1.8,1.2,3.9,1.8,6,1.8
		c1.9,0,3.7-0.5,5.4-1.4c3.6-2,5.9-5.8,5.9-9.9v-150c3.7-0.6,7-3.1,8.5-6.8l17.1-41.2l41.2-17.1c4.7-2,7.5-6.8,6.9-11.9l-5.8-44.2
		l27.1-35.4C375.2,190,375.2,184.4,372.1,180.4z M193.3,441.3c-3.7-2.3-8.4-2.3-12.1,0l-61.3,38.9V348.3l25-3.3l35.4,27.1
		c2,1.6,4.4,2.3,6.9,2.3s4.8-0.8,6.9-2.3l35.4-27.1l25,3.3v131.9L193.3,441.3z M324.3,219.5c-1.8,2.4-2.6,5.4-2.2,8.3l5.3,40.3
		l-37.5,15.5c-2.8,1.1-5,3.3-6.1,6.1l-15.5,37.5l-40.3-5.3c-3-0.4-6,0.4-8.3,2.2L187.2,349L155,324.3c-2-1.5-4.4-2.3-6.9-2.3
		c-0.5,0-1,0-1.5,0.1l-40.3,5.3l-15.5-37.5c-1.1-2.8-3.3-5-6.1-6.1l-37.5-15.5l5.3-40.3c0.4-3-0.4-6-2.2-8.3l-24.7-32.3L50.2,155
		c1.8-2.4,2.6-5.4,2.2-8.3l-5.3-40.3l37.5-15.5c2.8-1.1,5-3.3,6.1-6.1l15.5-37.5l40.3,5.3c3,0.4,6-0.4,8.3-2.2l32.3-24.7l32.3,24.7
		c2.4,1.8,5.4,2.6,8.3,2.2l40.3-5.3l15.5,37.5c1.1,2.8,3.3,5,6.1,6.1l37.5,15.5l-5.3,40.3c-0.4,3,0.4,6,2.2,8.3l24.7,32.3
		L324.3,219.5z"/>
	<path class="st0" d="M118.3,114.4c2.5,0,5.1-0.8,7.2-2.6c17.4-14.2,39.3-22.1,61.8-22.1c6.2,0,11.3-5.1,11.3-11.3
		c0-6.2-5.1-11.3-11.3-11.3c-27.7,0-54.7,9.7-76.1,27.2c-4.8,4-5.5,11.1-1.6,15.9C111.8,113,115,114.4,118.3,114.4z"/>
	<path class="st0" d="M227.5,74.1c-5.9-2.1-12.3,1-14.4,6.9c-2.1,5.9,1,12.3,6.9,14.4c38.8,13.8,64.8,50.7,64.8,91.9
		c0,53.8-43.7,97.5-97.5,97.5S89.7,241,89.7,187.2c0-19.1,5.5-37.6,16-53.5c3.4-5.2,2-12.2-3.2-15.6c-5.2-3.4-12.2-2-15.6,3.2
		c-12.9,19.6-19.7,42.4-19.7,65.9c0,66.2,53.9,120.1,120.1,120.1s120.1-53.9,120.1-120.1C307.3,136.5,275.2,91.1,227.5,74.1z"/>
</g>
</svg>
