<?xml version="1.0" standalone="no"?>
<!DOCTYPE svg PUBLIC "-//W3C//DTD SVG 20010904//EN"
 "http://www.w3.org/TR/2001/REC-SVG-20010904/DTD/svg10.dtd">
<svg version="1.0" xmlns="http://www.w3.org/2000/svg"
 width="384.000000pt" height="384.000000pt" viewBox="0 0 384.000000 384.000000"
 preserveAspectRatio="xMidYMid meet">
<metadata>
Created by potrace 1.10, written by Peter Selinger 2001-2011
</metadata>
<g transform="translate(0.000000,384.000000) scale(0.100000,-0.100000)"
fill="#000000" stroke="none">
<path d="M1820 3686 c0 -85 -4 -157 -8 -160 -5 -3 -57 44 -118 105 -60 60
-114 109 -121 109 -16 0 -113 -97 -113 -113 0 -7 81 -93 180 -192 l180 -180 0
-87 c0 -48 -4 -89 -8 -92 -5 -3 -87 74 -183 170 -95 95 -179 174 -185 174 -6
0 -34 -25 -63 -55 -42 -44 -50 -58 -42 -72 5 -10 116 -124 245 -253 l236 -235
0 -327 c0 -180 -4 -329 -8 -332 -5 -3 -153 140 -330 317 l-322 322 -2 295 -3
295 -85 0 -85 0 -3 -185 c-1 -102 -5 -191 -8 -199 -3 -10 -45 25 -132 112 -70
70 -133 127 -139 127 -16 0 -113 -97 -113 -113 0 -6 57 -69 127 -139 87 -87
122 -129 112 -132 -8 -3 -97 -7 -199 -8 l-185 -3 0 -85 0 -85 295 -3 295 -2
322 -322 c177 -177 320 -325 317 -330 -3 -4 -152 -8 -332 -8 l-327 0 -235 236
c-129 129 -243 240 -253 245 -14 8 -28 0 -72 -42 -30 -29 -55 -57 -55 -63 0
-6 79 -90 174 -185 96 -96 173 -178 170 -183 -3 -4 -44 -8 -92 -8 l-87 0 -180
180 c-99 99 -185 180 -192 180 -16 0 -113 -97 -113 -113 0 -7 49 -61 109 -121
61 -61 108 -113 105 -118 -3 -4 -70 -8 -150 -8 l-144 0 0 -90 0 -90 144 0 c80
0 147 -4 150 -8 3 -5 -44 -57 -105 -118 -60 -60 -109 -114 -109 -121 0 -16 97
-113 113 -113 7 0 93 81 192 180 l180 180 87 0 c48 0 89 -4 92 -8 3 -5 -74
-87 -170 -183 -95 -95 -174 -179 -174 -185 0 -6 25 -34 55 -63 44 -42 58 -50
72 -42 10 5 124 116 253 245 l235 236 327 0 c180 0 329 -4 332 -8 3 -5 -140
-153 -317 -330 l-322 -322 -295 -2 -295 -3 0 -85 0 -85 185 -3 c102 -1 192 -5
199 -8 10 -3 -37 -57 -147 -167 -89 -89 -162 -168 -162 -175 0 -17 95 -112
112 -112 7 0 86 73 175 162 110 110 164 157 167 147 3 -7 7 -97 8 -199 l3
-185 85 0 85 0 3 295 2 295 322 322 c177 177 325 320 330 317 4 -3 8 -152 8
-332 l0 -327 -236 -235 c-129 -129 -240 -243 -245 -253 -8 -14 0 -28 42 -72
29 -30 57 -55 63 -55 6 0 90 79 185 174 96 96 178 173 183 170 4 -3 8 -44 8
-92 l0 -87 -180 -180 c-99 -99 -180 -185 -180 -192 0 -16 97 -113 113 -113 7
0 61 49 121 109 61 61 113 108 118 105 4 -3 8 -70 8 -150 l0 -144 90 0 90 0 0
144 c0 80 4 147 8 150 5 3 57 -44 118 -105 60 -60 114 -109 121 -109 16 0 113
97 113 113 0 7 -81 93 -180 192 l-180 180 0 87 c0 48 4 89 8 92 5 3 87 -74
183 -170 95 -95 179 -174 185 -174 6 0 34 25 63 55 42 44 50 58 42 72 -5 10
-116 124 -245 253 l-236 235 0 327 c0 180 4 329 8 332 5 3 153 -140 330 -317
l322 -322 2 -295 3 -295 85 0 85 0 3 185 c1 102 5 192 8 199 3 10 57 -37 167
-147 89 -89 168 -162 175 -162 17 0 112 95 112 112 0 7 -73 86 -162 175 -110
110 -157 164 -147 167 7 3 97 7 199 8 l185 3 0 85 0 85 -295 3 -295 2 -322
322 c-177 177 -320 325 -317 330 3 4 152 8 332 8 l327 0 235 -236 c129 -129
243 -240 253 -245 14 -8 28 0 72 42 30 29 55 57 55 63 0 6 -79 90 -174 185
-96 96 -173 178 -170 183 3 4 44 8 92 8 l87 0 180 -180 c99 -99 185 -180 192
-180 16 0 113 97 113 113 0 7 -49 61 -109 121 -61 61 -108 113 -105 118 3 4
75 8 160 8 l154 0 0 90 0 90 -154 0 c-85 0 -157 4 -160 8 -3 5 44 57 105 118
60 60 109 114 109 121 0 16 -97 113 -113 113 -7 0 -93 -81 -192 -180 l-180
-180 -87 0 c-48 0 -89 4 -92 8 -3 5 74 87 170 183 95 95 174 179 174 185 0 6
-25 34 -55 63 -44 42 -58 50 -72 42 -10 -5 -124 -116 -253 -245 l-235 -236
-327 0 c-180 0 -329 4 -332 8 -3 5 140 153 317 330 l322 322 295 2 295 3 0 85
0 85 -185 3 c-102 1 -191 5 -199 8 -10 3 25 45 112 132 70 70 127 133 127 139
0 16 -97 113 -113 113 -6 0 -69 -57 -139 -127 -87 -87 -129 -122 -132 -112 -3
8 -7 97 -8 199 l-3 185 -85 0 -85 0 -3 -295 -2 -295 -322 -322 c-177 -177
-325 -320 -330 -317 -4 3 -8 152 -8 332 l0 327 236 235 c129 129 240 243 245
253 8 14 0 28 -42 72 -29 30 -57 55 -63 55 -6 0 -90 -79 -185 -174 -96 -96
-178 -173 -183 -170 -4 3 -8 44 -8 92 l0 87 180 180 c99 99 180 185 180 192 0
16 -97 113 -113 113 -7 0 -61 -49 -121 -109 -61 -61 -113 -108 -118 -105 -4 3
-8 75 -8 160 l0 154 -90 0 -90 0 0 -154z"/>
</g>
</svg>
