<?xml version="1.0" encoding="utf-8"?>
<!-- Generator: Adobe Illustrator 21.1.0, SVG Export Plug-In . SVG Version: 6.00 Build 0)  -->
<svg version="1.1" id="Calque_1" xmlns="http://www.w3.org/2000/svg" xmlns:xlink="http://www.w3.org/1999/xlink" x="0px" y="0px"
	 viewBox="0 0 63.7 53.6" style="enable-background:new 0 0 63.7 53.6;" xml:space="preserve">
<style type="text/css">
	.st0{fill:#FFFFFF;}
</style>
<g>
	<g>
		<path class="st0" d="M41.2,2.4c5.2,4.6,9.5,10,11.4,16.3c1.5,0.5,3,1,4.5,1.5c1.7,0.6,3.5,2.2,3.5,4.2c1.3,1.3,3.5,2.9,3.1,5.1
			c-1.9,4.9-8.6,3-10.7,8.1c-2,3.6-4.2,7.7-8.6,8.6c-0.5,0.4-0.7,0.9-0.6,1.5c0.7,1,0.7,2.7,2.3,2.8c0.9,0.2,2.2,0.1,2.5,1.2
			c0.5-0.2,0.4,0.4,0.6,0.6c0,0.5,0.1,1.1-0.5,1.3c-2.1-0.1-4.7,0.2-6.8-0.3c-0.9-1.9-2.5-3.8-3.5-5.7l-0.6-0.3
			c-1.3,1-3,1.2-4.2,2.3c0.9,1.1,2.2,1.8,2.2,3.4c-2.5,0.8-4.9,0.1-7.4,0.1c-5.8,0.1-10.8-0.1-16.5-0.4c-0.5-0.3-0.6-0.9-0.4-1.4
			l0.2-0.3c-1.3-0.9-2.8,0.1-4.2-0.4c-3.1-0.5-5.9-3.1-7.1-5.9c-0.4-0.9-0.3-2.1,0-3c1.2-1,3.1-1.4,4.4-0.6c0.4,0.2,0.7,0.4,1,0.6
			L6,41.7c-1.6-7.3-0.2-16.4,6.5-20.9c7.6-4.9,18.9-3.1,26.1,1.4c1.4,0.3,2.8,1.5,4.4,2c1.1-0.6,2.5-0.7,3.2-1.9
			c-2.4-1.6-5.2-3.7-7-6c-3.5-3.6-4.9-8.2-7.6-12.3V3.6c2,0.4,3.2,1.8,5.1,2.5c1.6,1.4,3.5,2.4,4.9,3.8c-0.8-3.4-3-6.6-4.1-10
			C38.9,0.4,40.1,1.4,41.2,2.4"/>
		<path class="st0" d="M58.2,24.2l0,0.3c0,0.5-0.3,1-0.8,1.2l-0.1,0c-0.7,0-1-0.5-1.3-1c0.2-0.4,0.4-1,0.9-1.2l0.2,0
			C57.6,23.6,58,23.8,58.2,24.2c-0.2-0.4-0.6-0.7-1-0.7l-0.2,0c-0.5,0.2-0.7,0.7-0.9,1.2c0.2,0.5,0.6,1,1.3,1l0.1,0
			c0.5-0.2,0.8-0.7,0.8-1.2L58.2,24.2"/>
		<g>
			<circle class="st0" cx="57.1" cy="24.6" r="1.2"/>
		</g>
	</g>
</g>
</svg>
