<?xml version="1.0" encoding="utf-8"?>
<!-- Generator: Adobe Illustrator 21.1.0, SVG Export Plug-In . SVG Version: 6.00 Build 0)  -->
<svg version="1.1" id="Calque_1" xmlns="http://www.w3.org/2000/svg" xmlns:xlink="http://www.w3.org/1999/xlink" x="0px" y="0px"
	 viewBox="0 0 462.5 792.8" style="enable-background:new 0 0 462.5 792.8;" xml:space="preserve">
<style type="text/css">
	.st0{fill:#FFFFFF;}
	.st1{fill:#D24A43;}
	.st2{fill:#D34F46;}
	.st3{fill:#B4ABAA;}
</style>
<path class="st0" d="M437,792.8H25.5c-14,0-25.5-11.5-25.5-25.5V25.5C0,11.5,11.5,0,25.5,0H437c14,0,25.5,11.5,25.5,25.5v741.8
	C462.5,781.3,451,792.8,437,792.8z"/>
<g>
	<path class="st1" d="M38.1,493.2v100.6h69.7c6.8-3.6,13.1-12.9,12.4-23H67.1V457.3l-17.9,0.1C49.2,457.4,38.1,470.9,38.1,493.2"/>
	<path class="st1" d="M192,457.3h-28.6c0,0-14,13.4-14,35.9v100.6h42.5c22.6,0,38.9-4.7,53.3-15.7c16.9-12.7,26.9-32.4,26.9-52.5
		C272,485.3,239.2,457.3,192,457.3 M226,559.9c-9.2,7.6-21,10.9-39.8,10.9h-7.8v-90.4h7.8c18.8,0,30.2,3.1,39.8,11.1
		c10.1,8.2,16.1,20.9,16.1,34C242.1,538.6,236.1,551.7,226,559.9"/>
	<path class="st1" d="M400.5,461.2c-11.2-4.8-20.9-6.8-32.3-6.8c-44.1,0-79.3,31.7-79.3,71.4c0,40.1,34.3,71.1,78.6,71.1
		c12.5,0,23.2-2.2,36.4-8c0,0-6.6-18.3-9-24.2c-8.3,5.5-16.4,7.8-26.1,7.8c-29.3,0-50.1-19.4-50.1-47.1c0-26.2,21.5-46.9,48.7-46.9
		c6.3,0,11.9,1,17.3,3C390.5,479.2,398.9,470.5,400.5,461.2"/>
	<rect x="125.3" y="580.7" class="st1" width="13.1" height="13.1"/>
	<rect x="258.8" y="580.7" class="st1" width="13.1" height="13.1"/>
	<rect x="411.1" y="580.7" class="st1" width="13.1" height="13.1"/>
</g>
<g>
	<g>
		<g>
			<path class="st2" d="M60.4,774l2.4,5.7c0.9-0.6,92.7-65.8,344.6-32.9l1.8-13.3C150.9,699.8,64.3,771.4,60.4,774z"/>
		</g>
	</g>
	<g>
		<path class="st3" d="M51.2,624.4h44.7v7.8h-34v24.1h31.4v7.7H61.9v32.8H51.2V624.4z"/>
		<path class="st3" d="M182.2,659.9c0,24.9-17.4,38.2-38.6,38.2c-21.9,0-37.3-14.8-37.3-36.8c0-23,16.4-38.1,38.6-38.1
			C167.5,623.3,182.2,638.4,182.2,659.9z M117.8,661.1c0,15.5,9.6,29.3,26.5,29.3c17,0,26.6-13.7,26.6-30.1
			c0-14.4-8.6-29.5-26.5-29.5C126.6,630.9,117.8,645.2,117.8,661.1z"/>
		<path class="st3" d="M267.1,659.9c0,24.9-17.4,38.2-38.6,38.2c-21.9,0-37.3-14.8-37.3-36.8c0-23,16.4-38.1,38.6-38.1
			C252.5,623.3,267.1,638.4,267.1,659.9z M202.7,661.1c0,15.5,9.6,29.3,26.5,29.3c17,0,26.6-13.7,26.6-30.1
			c0-14.4-8.6-29.5-26.5-29.5C211.5,630.9,202.7,645.2,202.7,661.1z"/>
		<path class="st3" d="M281,625.4c6.5-0.9,14.3-1.5,22.8-1.5c15.4,0,26.4,3.1,33.6,9c7.4,5.9,11.7,14.3,11.7,26
			c0,11.8-4.2,21.5-12,28.2c-7.8,6.8-20.6,10.4-36.7,10.4c-7.6,0-14.1-0.3-19.5-0.9V625.4z M291.8,689.5c2.7,0.4,6.7,0.5,10.8,0.5
			c22.9,0,35.4-11.2,35.4-30.7c0.1-17.1-11-27.9-33.6-27.9c-5.5,0-9.7,0.4-12.6,1V689.5z"/>
		<path class="st3" d="M361.6,685.5c4.8,2.6,11.8,4.7,19.2,4.7c11,0,17.4-5.1,17.4-12.4c0-6.8-4.4-10.6-15.7-14.4
			c-13.6-4.2-21.9-10.3-21.9-20.5c0-11.3,10.7-19.7,26.9-19.7c8.5,0,14.7,1.7,18.4,3.5l-3,7.6c-2.7-1.3-8.3-3.4-15.8-3.4
			c-11.3,0-15.7,5.9-15.7,10.9c0,6.8,5.1,10.1,16.5,14c14.1,4.7,21.2,10.6,21.2,21.3c0,11.2-9.5,20.9-29.1,20.9
			c-8,0-16.8-2-21.2-4.6L361.6,685.5z"/>
	</g>
</g>
<path class="st1" d="M427.7,397.9c0,16.1-13.1,29.2-29.2,29.2H63.7c-16.1,0-29.2-13.1-29.2-29.2V63.6c0-16.1,13.1-29.2,29.2-29.2
	h334.8c16.1,0,29.2,13.1,29.2,29.2V397.9z"/>
<path class="st0" d="M32.1,351.4v76.9h73.2h189.6v-16.6c0,0-2.5-81.9,12.3-123.1c14.8-41.2,28.3-59.7,35.7-69.5
	c7.4-9.8,84.3-104,87.4-119.4c0,0,0-41.2-2.5-53.5c0,0-60.3,47.4-156.3,88.6s-86.8,41.9-86.8,41.9s5.5-10.5,4.9-20.9
	c-0.6-10.5-31.4-75.7-59.7-84.3c0,0-14.2-4.3-28.3,3.7c-14.2,8-33.9,27.7-32.6,45.5c1.2,17.8,16,52.3,31.4,63.4
	c15.4,11.1,17.2,12.3,51.7,11.1c0,0-54.6,33.7-84.7,71.1C67.5,266.2,38,297.9,32.1,351.4z"/>
<path class="st3" d="M207.8,311c0,0,0-3.2,4.2-5.5c4.2-2.3,6.5-23.5,1.8-38.3c-4.6-14.8-12.5-50.3-33.7-50.8
	c-21.2-0.5-47.5,6-58.6,27.2s10.2,68.3,37.9,79.9l3.7,1.4c0,0-63.7,63.2-58.4,102.2h199.9c0,0-21.5-45-44.5-72.7
	c0,0-25.4-30.9-49.4-36L207.8,311z"/>
</svg>
