<?xml version="1.0" encoding="utf-8"?>
<!-- Generator: Adobe Illustrator 21.1.0, SVG Export Plug-In . SVG Version: 6.00 Build 0)  -->
<svg version="1.1" id="Calque_1" xmlns="http://www.w3.org/2000/svg" xmlns:xlink="http://www.w3.org/1999/xlink" x="0px" y="0px"
	 viewBox="0 0 208.5 213" style="enable-background:new 0 0 208.5 213;" xml:space="preserve">
<style type="text/css">
	.st0{fill-rule:evenodd;clip-rule:evenodd;fill:#FFFFFF;}
</style>
<path class="st0" d="M175.9,0c0.9,0,1.8,0,2.6,0c13.4,3,16.9,16,29.9,19.4c0,0.6,0,1.2,0,1.8c-12.8,0.1-26.1-0.3-33.4,5.3
	c-0.9,13.7-3.7,26.9-1.8,41.3c1.8,13.2,8.6,21.4,7,35.2c-3.6,31.3-21.3,51.6-53.7,59.8c0.4,12,2.3,26.5,7.9,37.8
	c6.7,2.9,18.9,0.5,25.5,3.5c-10.4,3.6-27.7,6.4-34.3-1.8c-0.8,0.9-3.2,0.3-2.6,2.6c4.1-12.1-3.1-27.6-5.3-41.3
	c-5-0.3-7.8,1.6-13.2,0.9c-4.6,12.4-9.7,24.3-10.6,40.5c4,6.5,13.8,1.8,20.2,5.3c-5.8,3.4-17.5,3.2-25.5,1.8
	c1.3-3.9-3.2-8.6-1.8-13.2c-1.5-2-6.1-0.3-6.2,0c-2.7-2.8,4.6-3,6.2-4.4c5.6-8,4.8-21.6,7.9-29.9c-25.6-3.1-50.9-13.5-78.3-17.6
	c-5.2,1.7-10.1,3.3-15.8,0.9C1,147,0.5,147,0,146.9c0-0.3,0-0.6,0-0.9c11.7-6.6,25.7-8.3,32.5-14.1c-6.7-1.4-19,3.9-25.5,2.6
	c3.6-6.1,13.3-6.1,18.5-10.6c-5.1-1.3-12.3-0.6-16.7-2.6c18.3-6.8,36.4-9.5,54.5-15c17.2-5.2,34-13.6,52.8-15
	c10.3-0.7,22.4,1.3,31.7-3.5C160.7,63.8,144,7.4,175.9,0z"/>
</svg>
