<?xml version="1.0" encoding="utf-8"?>
<!-- Generator: Adobe Illustrator 21.1.0, SVG Export Plug-In . SVG Version: 6.00 Build 0)  -->
<svg version="1.1" id="Calque_1" xmlns="http://www.w3.org/2000/svg" xmlns:xlink="http://www.w3.org/1999/xlink" x="0px" y="0px"
	 viewBox="0 0 74.8 79" style="enable-background:new 0 0 74.8 79;" xml:space="preserve">
<style type="text/css">
	.st0{opacity:0.87;fill:#FFFFFF;}
</style>
<path class="st0" d="M4.4,10.4c-0.8,0.6-0.2,1.2,0.7,3.1c0.9,2,2.8,1.2,2.8,1.2l2.3-0.7c0.3,0.6,0.4,1,0.1,1.9
	c-0.5,1.1-0.3,2.9-1.2,7.9c-0.8,5-1.8,7-2.8,15.3c-1,8.3,9.4,13,11,12.9c1.6-0.1,8.7,4.9,10.2,5.7c1.5,0.8,3.9,3.5,4.6,3.4
	c0.7-0.1-0.5,2.1,1,2.5c1.4,0.4,2.9,1.3,4,1.8c-0.4,3.6-1.7,9.5-4.4,10.1c-3.9,0.8-4.9-1-5.7-0.6c-0.8,0.5,1.7,1.2,1.7,1.2
	s-6,1.2-6.7,1.5c-0.8,0.3,5.4,0.2,7.6,0c2.2-0.2-0.7,1.1-0.2,1.4c1.1,0.7,5.7-2.4,7-2.4c1.3,0,3.8,1.5,4.3,0.3c0.5-1-2.6,0-3.5-2.5
	c0,0,9.3-3.3,11.2-3c2,0.3,1.7,3.6,3,3l-1.5-5.4c0,0,2.2-0.2,2.5-0.2c0.3,0,0.4,0,0.3,0c-1,0-2.5-0.1-3.7-1.8
	c-0.6-0.9-0.8-2.7-0.8-4.3c0.5-0.5,1.1-1,1.8-1.3c1.7-0.6,2.4,2.1,11.6-3.9c9.1-6,7.5-12.5,6.9-14.4c-0.6-2-1-0.8-0.6-2.5
	c0.5-1.7,2.1-2.2,2.7-4c0.6-1.8-1-1.4,1.6-3.9c2.7-2.5,1.5-4.7,1.5-4.7s0.5-1.5,0.1-2.1c-0.3-0.6-0.7-1.8-0.7-1.8s0.3-2.7,0.6-3.8
	c0.2-1-0.7-1.5-0.7-1.5s1-2.5,1.4-3.4c0.3-0.8-1.6-0.8-1-1.6c0.6-0.8-0.5-1.7-0.5-1.7s-1.7-2.3-5-4.6c-3.2-2.3-3.7,0.5-3.2-1.2
	c0.5-1.6-2.8-2.4-6.7-1.3c-3.9,1.2-4.3,9.2-5,12.8c-0.7,3.6-7.3,6.1-7.3,6.1s-7,0.1-10.4,0c-3.4-0.1-5.4-2.4-6.6-2.9
	c-1.2-0.5-5.2-9-7.1-11.4c-1.8-2.4-2.4-1.5-6.4-4.4c-0.8-0.6-1.5-1-2.1-1.2h0c0,0,1.2-1.7,0.5-2.3C13.4,1,12.7,0,12.4,1.1
	c-0.3,1.1-1.2,0-1.2,0s-0.7-1.3-1.3,0C9.3,2.5,8,1.1,8,1.1L7,0L6.2,2l-1-1.4v2.3c0,0-0.7-0.2-1.2,0.5C3.5,4.2,3.5,5.1,3,6
	C2.5,6.9,1.8,6,1.8,6l0.8,1.1c-0.1,0-0.2,0.1-0.3,0.1C1.3,7.6,0,9.5,0,9.5l4.6-0.3C4.7,9.7,4.7,10.2,4.4,10.4z M46.2,63.7
	c-0.3,2.1-0.8,4.6-1.2,5.6c-0.8,1.7-6.6,1.4-6.6,1.4c-0.1,1,4.1,0.8,4.1,0.8s-5,1.4-5.1,2.6c-0.4-1.8,1.3-5.6,2.5-8
	c0.7,0,1.4-0.2,2.3-0.6C44,64.7,45.3,63.6,46.2,63.7z"/>
</svg>
