<?xml version="1.0" encoding="utf-8"?>
<!-- Generator: Adobe Illustrator 21.1.0, SVG Export Plug-In . SVG Version: 6.00 Build 0)  -->
<svg version="1.1" id="Capa_1" xmlns="http://www.w3.org/2000/svg" xmlns:xlink="http://www.w3.org/1999/xlink" x="0px" y="0px"
	 viewBox="0 0 512 512" style="enable-background:new 0 0 512 512;" xml:space="preserve">
<style type="text/css">
	.st0{fill:#FFFFFF;}
</style>
<g>
	<g>
		<g>
			<path class="st0" d="M256,304.1c-1,0-2-0.2-2.9-0.7L47.2,200.5c-2.2-1.1-3.6-3.4-3.6-5.8s1.4-4.7,3.6-5.8l164.1-82
				c3.2-1.6,7.1-0.3,8.7,2.9c1.6,3.2,0.3,7.1-2.9,8.7L64.7,194.7L256,290.4l191.3-95.7l-150.4-75.2c-3.2-1.6-4.5-5.5-2.9-8.7
				c1.6-3.2,5.5-4.5,8.7-2.9l162.1,81c2.2,1.1,3.6,3.4,3.6,5.8c0,2.5-1.4,4.7-3.6,5.8L258.9,303.4C258,303.9,257,304.1,256,304.1z"
				/>
			<path class="st0" d="M256,512c-1,0-2-0.2-2.9-0.7L47.2,408.4c-3.2-1.6-4.5-5.5-2.9-8.7c1.6-3.2,5.5-4.5,8.7-2.9L256,498.2
				l202.9-101.5c3.2-1.6,7.1-0.3,8.7,2.9c1.6,3.2,0.3,7.1-2.9,8.7L258.9,511.3C258,511.8,257,512,256,512z"/>
			<path class="st0" d="M461.8,409.1c-3.6,0-6.5-2.9-6.5-6.5V194.7c0-3.6,2.9-6.5,6.5-6.5c3.6,0,6.5,2.9,6.5,6.5v207.9
				C468.3,406.2,465.4,409.1,461.8,409.1z"/>
			<path class="st0" d="M256,512c-3.6,0-6.5-2.9-6.5-6.5V297.6c0-3.6,2.9-6.5,6.5-6.5c3.6,0,6.5,2.9,6.5,6.5v207.9
				C262.5,509.1,259.6,512,256,512z"/>
			<path class="st0" d="M50.2,409.1c-3.6,0-6.5-2.9-6.5-6.5V194.7c0-3.6,2.9-6.5,6.5-6.5s6.5,2.9,6.5,6.5v207.9
				C56.7,406.2,53.7,409.1,50.2,409.1z"/>
		</g>
	</g>
	<g>
		<path class="st0" d="M256,172c-3.6,0-6.5-2.9-6.5-6.5V6.5c0-3.6,2.9-6.5,6.5-6.5c3.6,0,6.5,2.9,6.5,6.5v159
			C262.5,169.1,259.6,172,256,172z"/>
		<path class="st0" d="M319,76c-1.7,0-3.3-0.6-4.6-1.9L256,15.7l-58.4,58.4c-2.5,2.5-6.7,2.5-9.2,0s-2.5-6.7,0-9.2l63-63
			c1.2-1.2,2.9-1.9,4.6-1.9l0,0c1.7,0,3.4,0.7,4.6,1.9l63,63c2.5,2.5,2.5,6.7,0,9.2C322.3,75.4,320.7,76,319,76z"/>
	</g>
</g>
</svg>
