<?xml version="1.0" encoding="utf-8"?>
<!-- Generator: Adobe Illustrator 21.1.0, SVG Export Plug-In . SVG Version: 6.00 Build 0)  -->
<svg version="1.1" id="Capa_1" xmlns="http://www.w3.org/2000/svg" xmlns:xlink="http://www.w3.org/1999/xlink" x="0px" y="0px"
	 viewBox="0 0 512 512" style="enable-background:new 0 0 512 512;" xml:space="preserve">
<style type="text/css">
	.st0{fill:#e93842;}
</style>
<g>
	<path class="st0" d="M33.5,112c18.6,43.3,50.1,86.2,94.1,104.6c5,2.1,10.7,3.7,16.6,5c11.7-17.5,25.2-31.7,40.9-43.3
		c13.5-9.9,27.7-17.7,42.3-23.9c-4.2-2.9-8.6-5.6-13.2-8c-18.3-9.6-38.1-18-57.4-27c18.2,4.9,39,6.7,56.3,13.1
		c10.8,4,20.8,9.5,30.1,16c27.8-9.5,56.8-14,85.8-17.5c-23.5-39-73.6-70.4-111.4-84.5c-39.4-14.8-84.1-16.6-128-21.2
		C62.8,22.6,33.5,12.5,12.2,0.8C7.3-1.9,2.1,2.6,3.8,8C14.3,41.6,19.6,79.7,33.5,112z"/>
	<path class="st0" d="M497.3,106.9c-49.5,26.9-106.3,30.2-161.9,36.6c-27.2,3.1-54,7-79.6,14.8c-5.5,1.7-11.1,3.6-16.5,5.7
		c-16.2,6.2-31.8,14.3-46.5,25.1c-13.8,10.1-25.1,22.2-34.6,35.4c-15.2,21.1-25.7,45.5-34.4,70.7c-15.9,45.9-23.1,94.6-21.7,143.1
		c0.6,19.7,0.9,40.1,5.8,59.3c1.1,4.2,2.1,9.6,5.4,12.8c4.3,4.1,12-0.1,10.3-6.1c-12.5-42.4-4.7-92,12.5-132.6
		c19.8-46.6,58-74.3,104.6-91.2c12.4-4.5,25.1-8.4,37.9-12.1c0.3-0.1,0.5-0.1,0.8-0.1c2.6,0,3.7,3.8,1,5
		c-15.2,6.9-30.2,13.8-44.6,21.2c-70.2,36.6-100.9,121.9-74.5,121.9c2.1,0,4.7-0.6,7.5-1.8c40.6-16.8,88.8-16.9,133.5-25.2
		c15.7-2.9,31-6.8,45.3-12.8c56.9-23.8,97.6-70.2,121.8-126.1c18-41.7,25.1-90.9,38.7-134.2c1.8-5.5-2.1-10.3-7-10.3
		C499.9,105.8,498.6,106.2,497.3,106.9z"/>
</g>
</svg>
