<?xml version="1.0" encoding="utf-8"?>
<!-- Generator: Adobe Illustrator 21.1.0, SVG Export Plug-In . SVG Version: 6.00 Build 0)  -->
<svg version="1.1" id="Calque_1" xmlns="http://www.w3.org/2000/svg" xmlns:xlink="http://www.w3.org/1999/xlink" x="0px" y="0px"
	 viewBox="0 0 174.5 199.5" style="enable-background:new 0 0 174.5 199.5;" xml:space="preserve">
<style type="text/css">
	.st0{fill-rule:evenodd;clip-rule:evenodd;fill:#FFFFFF;}
</style>
<path class="st0" d="M174.5,24c0,0.4,0,0.8,0,1.1c-3.2,0.7-4.5-1.5-8-2.3c-3.3,1.6-4.3,5.6-6.9,8c1.8,8.4,9.1,12.5,10.9,21.7
	c3.4,17.3,2.6,42.3-2.9,57.7c-12.4,9.4-23.3,22.4-38.9,26.9c-5,5.5-4.6,16.3-10.3,21.2c1.7,7.8,3.4,15.6,7.4,21.2
	c3.5,0.3,3.2-3.3,6.9-2.9c0,3.3-2,4.4-3.4,6.3c8.8,2.1,18.6,1.7,22.9,9.1c-3.3-1.4-3.6-1.5-7.4-0.6c-3.6-1.4-6.5-3.4-12-2.9
	c1.8,1.7,5.4,2.3,4.6,5.1c-7.9-0.2-13.6-5.2-20-8.6c-0.6,3.9-4.9,4.2-6.9,4c1.1-4.6,4.9-4.9,5.7-9.1c1.7-9.1-6.1-19.1-6.9-27.4
	c-9,2.4-18.1,4.8-24,10.3c-1.8,6.9-3.8,15.7-2.9,23.4c8.5,1.8,13.8-5.7,18.3,0c-4.8-1.5-4.2,3.1-8,4c-0.8-2.1-6.4,0.3-7.4,1.7
	c3.6,3.5,13,1.1,13.7,7.4c-5.6-1.2-12.3-2.3-18.3-4.6c-0.6-3.6-3-5.4-6.9-5.7c-0.7-2.3-0.9-1.7-1.1-4c-3.5,1.1-6.8,2.1-9.1,1.7
	c2.5-4.4,8.6-5.1,12-8.6c3.1-7.9,2.8-19.3,4.6-28.6c-4.1,0.9-8.3-1.6-9.1-5.7c-8-1.9-12.6-7.5-13.1-14.9c-4.3-0.7-5.3-3.5-5.1-7.4
	c-2.7-1.9-5.9-3.2-10.3-3.4c-4.2-7.4-8.1-15.1-19.4-15.4c-0.1-1.1,0.6-1.3,0.6-2.3c-4.9,2.3-7.4-2.5-8.6-4C9.2,97.8,7.5,95,3,93.8
	c0.4-1.5,3.4-2.2,1.7-4c-1.5-0.4-2.6,2.2-3.4,0.6c-3-9.5-1-24.2,9.1-26.9c-0.1-2.2,0-4.2,0.6-5.7c5.9-6.9,14.1-1.6,19.4-1.7
	c4.7,4.5,7,12.8,14.9,14.3c7.1,1.4,14-2.1,21.2-3.4c17.3,2.8,37.2-2.1,49.2-5.1c3.9-4.1,4-10.6,6.3-16c0.9-2,2.8-3.4,3.4-5.7
	c0.5-2.1-0.3-4.3,0-6.3c1.7-9.6,8.7-16,13.1-23.4c4.6-5.1,13.2-6.2,19.4-9.7c0.8,0.4,0.1,2.2,1.1,2.3C159,1.4,159,0.1,160.2,0
	c1.3,0.6-0.3,4.1,1.1,4.6c0.5-1,0-3.1,1.7-2.9c0.3,1.4-0.7,4.1,0.6,4.6c0.3-0.8-0.7-3,0.6-2.9c1.5,2,1.8,5.1,4.6,5.7
	C168.1,15.5,172.4,19.2,174.5,24z"/>
</svg>
