<?xml version="1.0" standalone="no"?>
<!DOCTYPE svg PUBLIC "-//W3C//DTD SVG 20010904//EN"
 "http://www.w3.org/TR/2001/REC-SVG-20010904/DTD/svg10.dtd">
<svg version="1.0" xmlns="http://www.w3.org/2000/svg"
 width="300.000000pt" height="231.000000pt" viewBox="0 0 300.000000 231.000000"
 preserveAspectRatio="xMidYMid meet">
<metadata>
Created by potrace 1.10, written by Peter Selinger 2001-2011
</metadata>
<g transform="translate(0.000000,231.000000) scale(0.050000,-0.050000)"
fill="#000000" stroke="none">
<path d="M3332 4568 c-7 -17 -12 -116 -12 -220 l0 -188 -79 0 c-180 0 -385
-128 -467 -291 -94 -187 -152 -1303 -74 -1429 30 -49 111 0 390 236 699 591
843 845 669 1176 l-61 116 166 153 c161 149 191 219 93 219 -10 0 -95 38 -190
84 -165 80 -173 82 -200 46 -26 -36 -27 -36 -27 6 0 81 -181 161 -208 92z
m121 -98 c17 -45 -13 -330 -35 -330 -10 0 -18 81 -18 180 0 168 22 230 53 150z
m129 -223 c-33 -65 -61 -101 -61 -81 -1 47 103 251 113 221 5 -13 -19 -76 -52
-140z m128 21 c-47 -72 -60 -46 -18 35 19 38 38 56 43 41 5 -14 -6 -48 -25
-76z m188 -3 c-6 -38 -257 -248 -280 -234 -17 11 16 52 104 132 115 104 182
143 176 102z m-435 -232 c74 -36 217 -166 217 -197 0 -9 -27 -3 -59 13 -72 38
-147 41 -137 6 4 -14 63 -52 131 -85 166 -80 187 -180 79 -375 -50 -90 -45
-90 -197 -14 -116 59 -177 65 -177 19 0 -12 58 -49 130 -83 l129 -60 -59 -74
c-70 -87 -457 -440 -629 -573 -155 -120 -158 -113 -146 355 10 398 9 395 106
349 84 -41 129 -43 129 -8 0 14 -48 49 -106 78 -118 57 -158 221 -47 186 136
-43 175 8 54 69 -91 47 -93 54 -52 152 l30 71 78 -41 c67 -34 83 -36 103 -12
19 23 7 37 -63 73 l-86 43 66 55 c124 104 351 127 506 53z"/>
<path d="M3160 3670 c0 -29 117 -90 172 -90 54 0 27 53 -43 86 -87 42 -129 43
-129 4z"/>
<path d="M3208 3477 c-17 -27 22 -65 50 -48 12 7 22 21 22 30 0 27 -57 41 -72
18z"/>
<path d="M3165 3285 c-48 -16 -25 -45 77 -96 99 -50 169 -53 154 -6 -10 30
-198 113 -231 102z"/>
<path d="M2871 2902 c-13 -21 15 -45 103 -90 83 -42 106 -40 106 5 0 51 -183
126 -209 85z"/>
<path d="M3629 2793 c-6 -14 -8 -106 -5 -205 l6 -178 120 -10 c178 -15 277
-98 318 -266 46 -192 -158 -408 -366 -390 l-72 6 -6 -265 -5 -265 70 0 c201 0
209 -274 8 -290 l-67 -5 0 -237 0 -238 315 -6 315 -5 0 73 c0 376 554 401 587
26 l8 -88 257 0 256 0 14 69 c40 194 358 170 358 -27 0 -51 4 -52 130 -52
l130 0 0 1178 c0 1055 -3 1179 -32 1190 -71 27 -2329 13 -2339 -15z m2291
-1163 l0 -1110 -55 0 c-42 1 -62 16 -85 64 -91 192 -359 195 -449 5 l-33 -69
-186 0 -187 0 -12 75 c-60 373 -612 379 -712 8 l-23 -83 -239 0 -239 0 0 170
c0 159 3 170 42 170 203 0 228 354 30 419 l-72 24 0 177 0 177 111 23 c458 95
414 800 -50 800 l-61 0 0 130 0 130 1110 0 1110 0 0 -1110z"/>
<path d="M4291 2629 c-65 -66 -16 -174 79 -174 60 0 110 49 110 107 0 50 -55
98 -110 98 -26 0 -61 -14 -79 -31z"/>
<path d="M5341 2565 c-245 -125 -171 -485 99 -485 269 0 357 372 114 487 -89
42 -127 42 -213 -2z m185 -68 c68 -36 93 -80 93 -163 2 -167 -199 -241 -307
-112 -130 153 38 369 214 275z"/>
<path d="M4824 2269 c-53 -38 -57 -111 -7 -156 106 -96 244 46 143 147 -48 48
-77 50 -136 9z"/>
<path d="M4618 1942 c-118 -119 -43 -300 124 -301 163 -2 236 184 120 301 -79
78 -165 78 -244 0z m213 -71 c37 -56 16 -115 -53 -152 -91 -49 -188 103 -114
177 42 42 132 29 167 -25z"/>
<path d="M5424 1829 c-87 -61 -47 -189 60 -189 116 0 142 143 37 200 -48 25
-44 26 -97 -11z"/>
<path d="M5155 1489 c-30 -17 -68 -56 -85 -89 -123 -237 215 -444 364 -222
129 192 -76 421 -279 311z m205 -89 c128 -128 -69 -329 -203 -207 -88 79 -18
247 103 247 33 0 78 -18 100 -40z"/>
<path d="M4210 1456 c-157 -90 -96 -336 84 -336 106 0 195 97 179 196 -21 131
-155 202 -263 140z m166 -80 c83 -83 -29 -231 -127 -167 -69 45 -80 82 -41
141 36 54 126 68 168 26z"/>
<path d="M5593 1223 c-96 -106 46 -244 147 -143 22 22 40 54 40 70 0 87 -129
138 -187 73z"/>
<path d="M1500 2729 c-540 -149 -738 -451 -601 -913 100 -334 -51 -516 -427
-516 -330 0 -462 -116 -462 -409 0 -874 1476 -1191 2321 -499 933 764 266
2641 -831 2337z m430 -96 c605 -161 925 -1128 599 -1807 -473 -984 -2411 -914
-2414 87 -1 205 113 287 399 287 413 1 600 252 486 650 -116 406 46 644 524
770 175 45 272 49 406 13z"/>
<path d="M1461 2498 c-365 -118 -490 -325 -391 -650 119 -392 -151 -752 -526
-700 -535 73 -365 -660 200 -859 210 -74 661 -74 945 1 769 203 1094 1040 697
1795 -209 397 -530 541 -925 413z m517 -120 c182 -91 324 -296 420 -605 59
-192 59 -193 -53 -193 -120 0 -348 -62 -522 -143 -181 -84 -380 -100 -498 -40
-107 55 -115 71 -108 205 4 73 -8 159 -35 247 -94 303 -28 419 306 544 182 67
334 63 490 -15z m451 -925 c32 -23 35 -44 24 -143 -19 -155 -12 -150 -203
-150 -216 0 -324 -24 -598 -133 -350 -140 -524 -134 -642 22 -63 81 -63 83 10
144 33 28 75 77 94 109 41 69 52 70 127 18 147 -105 372 -90 704 49 251 105
416 134 484 84z m-1570 -458 c35 -141 120 -289 218 -377 322 -289 321 -286 17
-274 -426 16 -773 276 -774 580 0 92 45 116 226 118 90 1 187 9 214 18 28 9
56 17 64 18 8 1 24 -36 35 -83z m1499 47 c43 -28 -67 -226 -201 -363 -213
-217 -690 -393 -736 -271 -25 66 -124 175 -219 240 -78 54 -197 203 -178 223
5 5 42 -4 82 -21 139 -57 292 -40 540 62 315 129 623 186 712 130z"/>
<path d="M1659 2266 c-222 -153 -133 -486 130 -486 273 0 370 366 130 490 -76
40 -199 38 -260 -4z m233 -113 c106 -91 37 -273 -104 -273 -27 0 -72 22 -99
49 -143 143 50 356 203 224z"/>
</g>
</svg>
