<?xml version="1.0" encoding="utf-8"?>
<!-- Generator: Adobe Illustrator 21.1.0, SVG Export Plug-In . SVG Version: 6.00 Build 0)  -->
<svg version="1.1" id="Calque_1" xmlns="http://www.w3.org/2000/svg" xmlns:xlink="http://www.w3.org/1999/xlink" x="0px" y="0px"
	 viewBox="0 0 82.5 95.7" style="enable-background:new 0 0 82.5 95.7;" xml:space="preserve">
<style type="text/css">
	.st0{fill:#FFFFFF;}
</style>
<path class="st0" d="M81.9,51.8c1.6-3.6-0.8-13.4-1.6-16.6c0,0,0-0.5-0.3-2c-0.6-3.8-3.8-6.3-6.2-7.4c-2.4-1.1-8,0-8,0l0.9-1
	c0,0-3.5,0-5.4,0.3c-1.9,0.3-3.9,3-3.9,3l0.9-2.3l-4.7,3.1l-0.4,0.5l-2.1,2.7v-2.8l-2.4,3c0,0-0.2,0.5-0.4,1.1
	c-0.5,1.3-1.2,3.2-1.7,3.5c-0.6,0.3-5.5,3.3-7.9,3.9c-2.4,0.6-11.2-1.3-14-3.5c-2.8-2.2-3.6-12.5-3.6-12.5s-0.1-0.3-0.3-0.8
	c-0.4-1-1-2.9-1.8-4.2c-0.7-1.4-1.7-2.1-2.9-3.5c0,0,2.2,0.5,3.2,0c0.9-0.5-2.8-5.6-2.8-5.6l3-2.1L14.3,8l3-4.6l-6.4,3.2V0L8.4,4.8
	L8.3,0.7L5.7,5.1L4.3,2.8c0,0,0,1.9-0.8,2.8c-0.8,0.9-3,4.1-2.5,5.1c0.5,1,2.6,2.7,2.6,2.7l0,0c-0.8,0.3-1.5,0.8-1.7,1.5
	c0,0,1.4-0.1,3,0l0,0c0,0-2.9,9.6-2.9,11c0,1.4,1.4,2.4,1.4,2.4l0.8,0.2c-0.8,2.3-1.9,5.4-2.4,7C1,38.2-2.9,52.4,4.2,56.4
	c7.1,3.9,17.7,15,20.2,17.7c2.5,2.7,0.8,5.7,2.2,6.8c0.1,0.1,0.2,0.1,0.3,0.2l-0.3,0.4c0,0-4.6,11.1-5,11.4c-0.5,0.3-1.7-0.2-3.6,0
	c-1.9,0.2-2,1.1-2,1.1s-8,1.4-5.6,1.6c2.2,0.1,6.9-0.5,7.8-0.6c-0.2,0-0.5,0.2,0.2,0.6c1,0.6,5.2-0.8,5.8-0.8c0.5,0,0.8-0.9,0.9-1.2
	c0,0,0.1,0,0.1,0l1.5,0.9l-0.4-1c1.3-0.1,2.8-0.4,3.3-0.8c0.9-0.8,1-1.9,1-1.9l1.5,1.9c0,0,1.1,0,1.7,0c-1.7,0-3.2-5.2-3.2-5.2
	l2.1-0.8c0,0-2-0.6-2.1-2.4c-0.1-1.7,0.6-5.1,0.6-5.1l0,0c0.9-1.2,1.5-2.4,1.5-2.4s-3.1-3.8,0-4.3c3.1-0.5,11.6-5.4,13.8-5.8
	c2.2-0.5,2.5-0.2,2.5-0.2s1.6,1.7,1.4,0.5c-0.2-1.3,1.9-2.4,1.9-2.4l0.6,1.9l2.1-0.9v2l1.6-1.1c0,0,3.6,1.1,5,1.3
	c1.4,0.2-1.1,5,0.6,3.8c1.7-1.3,6.3-2.5,6.3-2.5s-2.1,3.8-0.8,3.3c9.5-3.8,9-23.8,9-23.8s2.8,8.7,3.5,7.6c0.3-0.6,0.3-1.8,0.2-2.7
	C80.5,53.9,81,54,81.9,51.8z"/>
</svg>
