<?xml version="1.0" standalone="no"?>
<!DOCTYPE svg PUBLIC "-//W3C//DTD SVG 20010904//EN"
 "http://www.w3.org/TR/2001/REC-SVG-20010904/DTD/svg10.dtd">
<svg version="1.0" xmlns="http://www.w3.org/2000/svg"
 width="796.000000pt" height="796.000000pt" viewBox="0 0 796.000000 796.000000"
 preserveAspectRatio="xMidYMid meet">
<metadata>
Created by potrace 1.11, written by Peter Selinger 2001-2013
</metadata>
<g transform="translate(0.000000,796.000000) scale(0.100000,-0.100000)"
fill="#000000" stroke="none">
<path d="M500 7905 c-223 -55 -394 -229 -440 -450 -10 -47 -13 -642 -14 -2845
-1 -1532 -5 -2790 -9 -2797 -4 -7 -10 -34 -13 -60 -2 -26 -8 -59 -11 -73 -4
-14 -9 -388 -10 -832 l-4 -808 2625 0 c2065 0 2625 3 2628 12 4 10 240 13
1084 13 593 0 1084 4 1090 7 6 4 26 10 45 13 56 9 191 81 237 125 99 97 148
178 180 297 18 65 18 181 18 3023 l-1 2955 28 60 29 60 -7 290 c-9 445 -18
602 -40 750 -2 11 -4 24 -4 29 -1 4 -16 -3 -35 -18 -44 -33 -48 -33 -69 4 -51
85 -171 179 -292 227 l-70 28 -3445 2 c-2864 1 -3454 -1 -3500 -12z"/>
</g>
</svg>
